<svg width="44" height="44" viewBox="0 0 44 44" fill="none" xmlns="http://www.w3.org/2000/svg">
<path fill-rule="evenodd" clip-rule="evenodd" d="M42.5333 0H1.46667C0.764133 0 0 0.88157 0 1.69207V13.5366C0 15.4046 1.31413 16.9207 2.93333 16.9207C4.55253 16.9207 5.86667 15.4046 5.86667 13.5366V6.76829H38.1333V13.5366C38.1333 15.4046 39.4475 16.9207 41.0667 16.9207C42.6859 16.9207 44 15.4046 44 13.5366V1.69207C44 0.774969 43.4192 0 42.5333 0ZM27.8667 30.4573H24.9333V15.2287C24.9333 13.3606 23.6192 11.8445 22 11.8445C20.3808 11.8445 19.0667 13.3606 19.0667 15.2287V30.4573H16.1333C15.5584 30.4573 14.234 30.2965 13.6591 30.9649C13.0841 31.6299 13.0841 32.7112 13.6591 33.3778L20.9073 43.515C21.2139 43.8703 21.6216 44.0227 22.0235 43.9973C22.4253 44.0227 22.8316 43.8703 23.1381 43.515L30.3864 33.3778C30.9613 32.7112 30.9613 31.6299 30.3864 30.9649C29.8115 30.2965 28.9007 30.4573 27.8667 30.4573Z" fill="#10A37F"/>
</svg>
