<svg width="44" height="44" viewBox="0 0 44 44" fill="none" xmlns="http://www.w3.org/2000/svg">
<path fill-rule="evenodd" clip-rule="evenodd" d="M12.9132 0.270004C9.3319 0.431594 6.22779 1.30719 3.72129 3.80311C1.20603 6.31214 0.341311 9.42855 0.179318 12.9726C0.0786201 15.1847 -0.510211 31.8963 1.19728 36.2789C2.34873 39.2356 4.61657 41.5089 7.60029 42.664C8.99255 43.2056 10.5819 43.5722 12.9132 43.6792C32.407 44.5614 39.6332 44.0811 42.6804 36.2789C43.2211 34.8901 43.5932 33.3021 43.6961 30.9765C44.5871 11.4328 43.5517 7.19652 40.1542 3.80311C37.4595 1.11502 34.2896 -0.714826 12.9132 0.270004ZM13.0927 39.7486C10.9583 39.6525 9.80034 39.2969 9.02759 38.9977C7.08368 38.2422 5.62357 36.7881 4.87271 34.8555C3.5724 31.5255 4.00367 15.7091 4.11969 13.1499C4.23352 10.643 4.74138 8.35194 6.51016 6.58319C8.69924 4.39951 11.5275 3.32931 30.7849 4.19842C33.298 4.31196 35.5943 4.81879 37.3675 6.58319C39.5566 8.76684 40.6424 11.6169 39.758 30.8004C39.6616 32.9294 39.3048 34.0847 39.0049 34.8555C37.0238 39.9326 32.4661 40.6373 13.0927 39.7486ZM30.9972 10.3172C30.9972 11.7628 32.1728 12.9383 33.6242 12.9383C35.0755 12.9383 36.2533 11.7628 36.2533 10.3172C36.2533 8.8716 35.0755 7.69715 33.6242 7.69715C32.1728 7.69715 30.9972 8.8716 30.9972 10.3172ZM10.6979 21.9735C10.6979 28.1664 15.7306 33.1873 21.9388 33.1873C28.1471 33.1873 33.1798 28.1664 33.1798 21.9735C33.1798 15.7807 28.1471 10.763 21.9388 10.763C15.7306 10.763 10.6979 15.7807 10.6979 21.9735ZM14.6426 21.9735C14.6426 17.9556 17.9087 14.6957 21.9388 14.6957C25.9689 14.6957 29.2351 17.9556 29.2351 21.9735C29.2351 25.9936 25.9689 29.2546 21.9388 29.2546C17.9087 29.2546 14.6426 25.9936 14.6426 21.9735Z" fill="white"/>
</svg>
