<svg width="66" height="66" viewBox="0 0 66 66" fill="none" xmlns="http://www.w3.org/2000/svg"><path fill-rule="evenodd" clip-rule="evenodd" d="M19.3699 0.405005C13.9979 0.647389 9.34168 1.96077 5.58193 5.70464C1.80904 9.46818 0.511967 14.1428 0.268978 19.4589C0.11793 22.777 -0.765317 47.8442 1.79591 54.4181C3.5231 58.8531 6.92485 62.2631 11.4004 63.9958C13.4888 64.8082 15.8728 65.358 19.3699 65.5185C48.6106 66.8418 59.4498 66.1214 64.0206 54.4181C64.8316 52.3349 65.3899 49.953 65.5442 46.4647C66.8806 17.1491 65.3275 10.7947 60.2313 5.70464C56.1892 1.67252 51.4345 -1.07223 19.3699 0.405005ZM19.6391 59.6227C16.4375 59.4786 14.7005 58.9451 13.5414 58.4964C10.6255 57.3631 8.43536 55.1819 7.30907 52.2831C5.3586 47.288 6.0055 23.5636 6.17953 19.7248C6.35028 15.9645 7.11207 12.5279 9.76524 9.87475C13.0489 6.59924 17.2913 4.99395 46.1773 6.29761C49.9469 6.46792 53.3915 7.22816 56.0513 9.87475C59.3349 13.1502 60.9635 17.4253 59.637 46.2004C59.4925 49.394 58.9573 51.1269 58.5074 52.2831C55.5357 59.8986 48.6992 60.9558 19.6391 59.6227ZM46.4959 15.4757C46.4959 17.6441 48.2592 19.4073 50.4363 19.4073C52.6133 19.4073 54.3799 17.6441 54.3799 15.4757C54.3799 13.3073 52.6133 11.5457 50.4363 11.5457C48.2592 11.5457 46.4959 13.3073 46.4959 15.4757ZM16.0468 32.9602C16.0468 42.2494 23.5959 49.7808 32.9082 49.7808C42.2206 49.7808 49.7697 42.2494 49.7697 32.9602C49.7697 23.6709 42.2206 16.1444 32.9082 16.1444C23.5959 16.1444 16.0468 23.6709 16.0468 32.9602ZM21.9639 32.9602C21.9639 26.9333 26.8631 22.0435 32.9082 22.0435C38.9534 22.0435 43.8526 26.9333 43.8526 32.9602C43.8526 38.9903 38.9534 43.8817 32.9082 43.8817C26.8631 43.8817 21.9639 38.9903 21.9639 32.9602Z" fill="white"/></svg>