<svg width="44" height="44" viewBox="0 0 44 44" fill="none" xmlns="http://www.w3.org/2000/svg">
<path d="M19.2481 0.945214C5.92725 4.80953 -3.34529 20.332 1.1451 31.655C4.70787 40.6385 15.3807 46.7872 28.7128 42.7199C42.2113 38.6019 45.26 24.9611 43.5802 22.2243C40.0819 16.5242 37.2076 26.3484 35.7716 22.0082C34.5217 18.2305 40.3667 9.24053 35.3436 3.85677C30.4644 -1.37335 22.8963 -0.113224 19.2481 0.945214ZM2.94342 25.5785C2.4433 24.067 3.23223 22.495 4.70581 22.0675C6.17927 21.6401 7.77923 22.519 8.27946 24.0304C8.77958 25.5419 7.99054 27.1138 6.51707 27.5415C5.04361 27.969 3.44343 27.09 2.94342 25.5785ZM8.45723 33.6388C7.95701 32.1274 8.74605 30.5553 10.2195 30.1278C11.693 29.7004 13.2929 30.5792 13.7932 32.0907C14.2934 33.6022 13.5044 35.1743 12.0309 35.6017C10.5573 36.0293 8.95746 35.1504 8.45723 33.6388ZM20.9815 39.273C19.508 39.7006 17.9081 38.8216 17.4079 37.3101C16.9076 35.7986 17.6967 34.2266 19.1701 33.7991C20.6436 33.3717 22.2436 34.2505 22.7438 35.7621C23.244 37.2735 22.4551 38.8456 20.9815 39.273ZM32.479 34.8301C32.9792 36.3415 32.1903 37.9135 30.7167 38.341C29.2433 38.7684 27.6434 37.8895 27.1433 36.3781C26.643 34.8666 27.4319 33.2944 28.9056 32.867C30.3788 32.4394 31.9788 33.3182 32.479 34.8301ZM29.1623 9.91894C30.0048 12.4655 28.6755 15.1136 26.1935 15.8337C23.7111 16.5538 21.0157 15.0733 20.1732 12.5268C19.3306 9.98032 20.6598 7.33217 23.142 6.61197C25.6242 5.89177 28.3198 7.37249 29.1623 9.91894Z" fill="#10A37F"/>
</svg>
