<svg width="44" height="44" viewBox="0 0 44 44" fill="none" xmlns="http://www.w3.org/2000/svg">
<path fill-rule="evenodd" clip-rule="evenodd" d="M41.0667 27.0793C39.4475 27.0793 38.1333 28.5954 38.1333 30.4634V37.2317H5.86667V30.4634C5.86667 28.5954 4.55253 27.0793 2.93333 27.0793C1.31413 27.0793 0 28.5954 0 30.4634V42.3079C0 43.1184 0.764133 44 1.46667 44H42.5333C43.4192 44 44 43.225 44 42.3079V30.4634C44 28.5954 42.6859 27.0793 41.0667 27.0793ZM16.1333 13.5427H19.0667V28.7713C19.0667 30.6394 20.3808 32.1555 22 32.1555C23.6192 32.1555 24.9333 30.6394 24.9333 28.7713V13.5427H27.8667C28.8992 13.5427 29.8115 13.7035 30.3879 13.0351C30.9613 12.3701 30.9613 11.2888 30.3879 10.6222L23.1381 0.485008C22.8301 0.129673 22.4239 -0.0226717 22.0235 0.00270939C21.6216 -0.0226717 21.2153 0.129673 20.9088 0.485008L13.659 10.6222C13.0841 11.2888 13.0841 12.3701 13.659 13.0351C14.234 13.7035 15.5584 13.5427 16.1333 13.5427Z" fill="#10A37F"/>
</svg>
