<svg width="37" height="37" viewBox="0 0 37 37" fill="none" xmlns="http://www.w3.org/2000/svg">
<path fill-rule="evenodd" clip-rule="evenodd" d="M36.6667 18.3333C36.6667 28.4585 28.4585 36.6667 18.3333 36.6667C8.20811 36.6667 0 28.4585 0 18.3333C0 8.20811 8.20811 0 18.3333 0C28.4585 0 36.6667 8.20811 36.6667 18.3333ZM18.9902 13.5345C17.2071 14.2762 13.6432 15.8112 8.29871 18.1397C7.43083 18.4849 6.9762 18.8226 6.93482 19.1526C6.86488 19.7107 7.56358 19.9303 8.51501 20.2295C8.64444 20.2702 8.77853 20.3124 8.91599 20.357C9.85206 20.6613 11.1112 21.0173 11.7658 21.0314C12.3596 21.0443 13.0223 20.7995 13.754 20.297C18.7477 16.9263 21.3253 15.2225 21.487 15.1857C21.6012 15.1598 21.7595 15.1272 21.8667 15.2225C21.974 15.3179 21.9633 15.4983 21.952 15.5467C21.8828 15.8418 19.1402 18.3916 17.7208 19.7111C17.2784 20.1225 16.9646 20.4142 16.9004 20.4809C16.7567 20.6301 16.6102 20.7713 16.4694 20.907C15.5998 21.7453 14.9475 22.374 16.5055 23.4007C17.2542 23.894 17.8532 24.3019 18.4508 24.7089C19.1035 25.1535 19.7545 25.5968 20.5969 26.149C20.8114 26.2896 21.0164 26.4358 21.2161 26.578C21.9756 27.1196 22.658 27.6061 23.5011 27.5284C23.991 27.4835 24.497 27.0228 24.754 25.6489C25.3614 22.4021 26.5553 15.367 26.8312 12.4682C26.8554 12.2142 26.825 11.8891 26.8006 11.7464C26.776 11.6038 26.725 11.4004 26.5395 11.2499C26.3199 11.0717 25.9809 11.0341 25.8291 11.0367C25.1396 11.049 24.0816 11.4168 18.9902 13.5345Z" fill="black"/>
</svg>
