<svg width="42" height="42" viewBox="0 0 42 42" fill="none" xmlns="http://www.w3.org/2000/svg">
<path d="M33.6733 29.8026H30.6772C29.5428 29.8026 29.1922 28.9006 27.1545 26.8354C25.3793 25.1166 24.5942 24.8856 24.1583 24.8856C23.5465 24.8856 23.3718 25.0602 23.3718 25.9045V28.6105C23.3718 29.3392 23.1395 29.7751 21.2186 29.7751C17.3438 29.5152 14.0136 27.4019 12.0803 24.3219L12.0515 24.2737C9.80746 21.4866 8.15334 18.1275 7.33521 14.4535L7.30496 14.2926C7.30496 13.8567 7.47959 13.4484 8.32384 13.4484H11.32C12.0762 13.4484 12.3677 13.7976 12.6606 14.6116C14.1428 18.8906 16.6178 22.6444 17.6367 22.6444C18.0148 22.6444 18.1895 22.4697 18.1895 21.51V17.0839C18.0726 15.0461 16.996 14.8729 16.996 14.1455C17.0083 13.7564 17.3273 13.4456 17.7178 13.4456C17.7302 13.4456 17.7412 13.4456 17.7536 13.447H17.7522H22.4671C23.1078 13.447 23.3402 13.7962 23.3402 14.5525V20.52C23.3402 21.1594 23.6317 21.3931 23.8063 21.3931C24.1845 21.3931 24.5062 21.1594 25.2033 20.4622C26.6526 18.6926 27.8915 16.6686 28.8361 14.4865L28.8993 14.3215C29.0987 13.8224 29.5772 13.4759 30.1368 13.4759C30.163 13.4759 30.1877 13.4772 30.2138 13.4786H30.2097H33.2058C34.1078 13.4786 34.3127 13.942 34.1078 14.5841C32.9061 17.231 31.5558 19.5052 29.9911 21.6117L30.0626 21.51C29.7436 22.0339 29.6267 22.2662 30.0626 22.8506C30.3816 23.2865 31.4307 24.1885 32.1292 25.0039C33.1398 26.0035 33.9868 27.1667 34.6262 28.451L34.6606 28.5266C34.9521 29.3681 34.5148 29.8054 33.6706 29.8054L33.6733 29.8026ZM27.3305 0.380371H14.6708C3.11671 0.380371 0.381836 3.11525 0.381836 14.6694V27.329C0.381836 38.8831 3.11671 41.618 14.6708 41.618H27.3305C38.8846 41.618 41.6195 38.8831 41.6195 27.329V14.6694C41.6195 3.11525 38.8543 0.380371 27.3305 0.380371Z" fill="white"/>
</svg>
